<?xml version="1.0" encoding="iso-8859-1"?>
<!-- Generator: Adobe Illustrator 19.0.0, SVG Export Plug-In . SVG Version: 6.00 Build 0)  -->
<svg version="1.1" id="Layer_1" xmlns="http://www.w3.org/2000/svg" xmlns:xlink="http://www.w3.org/1999/xlink" x="0px" y="0px"
	 viewBox="0 0 512 512" style="enable-background:new 0 0 512 512;" xml:space="preserve">
<g>
	<g>
		<rect x="101.01" y="290.45" width="49.8" height="194.633"/>
	</g>
</g>
<g>
	<g>
		<rect x="361.19" y="290.45" width="49.977" height="194.633"/>
	</g>
</g>
<g>
	<g>
		<path d="M473.872,295.664v-44.805c0-59.726-22.601-115.9-63.645-158.187C369.058,50.27,314.284,26.917,256,26.917
			S142.942,50.27,101.773,92.672c-41.044,42.287-63.645,98.461-63.645,158.187v44.805C15.715,305.403,0,327.743,0,353.698v68.138
			c0,34.879,28.379,63.248,63.248,63.248h6.221V290.45h0.006v-39.591c0-106.193,83.675-192.596,186.525-192.596
			s186.525,86.403,186.525,192.596v39.591h-0.01v194.633h6.238c34.868,0,63.248-28.369,63.248-63.248v-68.138
			C512,327.743,496.285,305.403,473.872,295.664z"/>
	</g>
</g>
<g>
</g>
<g>
</g>
<g>
</g>
<g>
</g>
<g>
</g>
<g>
</g>
<g>
</g>
<g>
</g>
<g>
</g>
<g>
</g>
<g>
</g>
<g>
</g>
<g>
</g>
<g>
</g>
<g>
</g>
</svg>
